# xmcd
#
# Track frame offsets:
#	150
#	16187
#	28036
#	43161
#	61569
#	78780
#	91639
#	107403
#	118113
#	133127
#	147736
#	159150
#
# Disc length: 2266 seconds
# Revision: 0
# Processed by: cddbd v1.5.2PL0 Copyright (c) Steve Scherf et al.
# Submitted via: dBpowerAMP V12.0
#
DISCID=8d08d80c
DTITLE=MohaviSoul - Hometown Blues
DYEAR=2017
DGENRE=Bluegrass
TTITLE0=Gettie Up
TTITLE1=Hometown Blues
TTITLE2=On My Way
TTITLE3=Lay Your Needle Down
TTITLE4=Stay Tuned
TTITLE5=Drinker's Lament
TTITLE6=Ferguson Fight
TTITLE7=Until I Go
TTITLE8=Same As Loving You
TTITLE9=Contrary Lovers
TTITLE10=Dirty Shame
TTITLE11=Dozen Roses
EXTD=
EXTT0=
EXTT1=
EXTT2=
EXTT3=
EXTT4=
EXTT5=
EXTT6=
EXTT7=
EXTT8=
EXTT9=
EXTT10=
EXTT11=
PLAYORDER=
